<svg width="189" height="45" viewBox="0 0 189 45" fill="none" xmlns="http://www.w3.org/2000/svg">
<path d="M20.9207 13.3771C19.7685 13.091 18.5259 12.9147 17.1146 12.8574C16.5132 12.8441 15.9979 12.8429 15.5189 12.8622C15.5126 12.8983 15.5134 12.9269 15.5071 12.9629C15.4906 13.157 15.4671 13.3583 15.4303 13.6031L15.3242 14.2153C15.2933 14.4096 15.2698 14.611 15.2393 14.8197C15.268 14.819 15.2892 14.8113 15.3178 14.8106C16.0319 14.7494 16.5824 14.7282 17.0904 14.7224C18.256 14.6855 19.4523 14.7339 20.6362 14.8543C23.0762 15.122 25.0514 15.6884 26.7933 16.6479C26.1817 15.9536 25.3999 15.321 24.4699 14.771C23.46 14.1729 22.2601 13.7016 20.9207 13.3771Z" fill="white"/>
<path d="M5.99366 15.1198C6.69818 15.2452 7.32275 15.3225 7.90332 15.3579C8.25467 15.3848 8.56274 15.3985 8.86348 15.4052C9.17853 15.4115 9.50054 15.4105 9.82256 15.4094C10.7882 15.392 11.7239 15.318 12.665 15.1793C12.6709 15.1289 12.6837 15.0712 12.6823 15.0139C12.7432 14.5965 12.8042 14.179 12.8868 13.7682L13.001 13.1916L13.0139 13.134C11.9953 13.3248 10.9042 13.4745 9.7331 13.5761C8.3691 13.6897 7.23911 13.7185 6.17148 13.6668C4.88197 13.6136 3.72562 13.4494 2.64521 13.1758C1.70892 12.9415 0.819976 12.5985 0 12.1533C0.61821 12.8259 1.42055 13.4221 2.35604 13.9074C3.40082 14.4688 4.62754 14.8677 5.99366 15.1198Z" fill="white"/>
<path d="M15.3287 10.4434C15.3251 10.0204 15.3146 9.60481 15.2901 9.20388C15.2652 8.78863 15.2261 8.37374 15.1873 7.97318C14.9764 6.15007 14.5788 4.58269 13.9634 3.17144C13.6067 2.37026 13.1876 1.64954 12.7212 1.03759C12.4397 0.657554 12.1232 0.314265 11.7932 0C12.4128 1.0096 12.8714 2.15953 13.1828 3.43512C13.5185 4.81764 13.6858 6.33353 13.7008 8.05406C13.7052 9.63863 13.5945 11.1975 13.3675 12.6875L13.2629 13.357L13.1674 13.8256C13.0918 14.229 13.0235 14.6395 12.9625 15.0569C12.8486 15.9275 12.7831 16.7322 12.7463 17.5363C12.7193 18.4476 12.7257 19.2649 12.7736 20.0237C12.8409 20.9829 12.9471 21.7833 13.1017 22.5179C13.297 23.4451 13.5249 24.2495 13.8149 24.9592C13.9905 25.3921 14.1576 25.7751 14.3527 26.1286C14.5558 26.5178 14.7941 26.8846 15.039 27.2297C15.2839 27.5749 15.5644 27.9119 15.8732 28.2339C16.0349 28.4018 16.1889 28.5485 16.3425 28.6808C16.4668 28.7852 16.5765 28.8756 16.7008 28.98L16.8251 29.0844C17.4822 29.5983 18.1951 30.0534 18.9201 30.4221C19.6814 30.8114 20.4545 31.1001 21.225 31.2884C21.6786 31.3987 22.1385 31.4731 22.5904 31.5118C22.1642 31.3577 21.7447 31.182 21.3387 30.9772C20.6354 30.6151 19.9592 30.1949 19.3534 29.7299C18.7623 29.2789 18.1767 28.7632 17.6182 28.1894C17.5665 28.1262 17.5078 28.0703 17.4565 28.0214C17.3828 27.9373 17.2948 27.8535 17.2284 27.7763C17.1107 27.6502 16.9927 27.5098 16.8742 27.3551C16.6671 27.0879 16.4662 26.7847 16.2642 26.4385C15.5976 25.2723 15.1545 23.8853 14.8971 22.1997C14.7839 21.4066 14.7074 20.6485 14.6889 19.9176C14.6546 19.1297 14.6566 18.3624 14.6875 17.6087C14.7174 16.812 14.7836 16.0359 14.8721 15.2951C14.9188 14.878 14.9666 14.5039 15.022 14.1512L15.1212 13.5463C15.1509 13.3089 15.1745 13.1076 15.1983 12.9205C15.3034 11.9857 15.3406 11.196 15.3287 10.4434Z" fill="white"/>
<path d="M29.2384 15.4239C29.0701 15.2776 28.9095 15.1526 28.7416 15.0206C28.0771 14.4998 27.3642 14.0447 26.6246 13.662C25.8779 13.2866 25.0902 12.984 24.2837 12.7894C23.4773 12.5949 22.6521 12.5083 21.8445 12.5504C22.6297 12.7527 23.3741 13.0421 24.0698 13.3829C24.7658 13.738 25.4204 14.1516 26.0331 14.6092C26.6389 15.0742 27.2172 15.5829 27.7463 16.1287C27.8787 16.2688 28.0111 16.4088 28.1361 16.5419C28.2611 16.6749 28.3649 16.8157 28.483 16.9561C28.7048 17.2373 28.8987 17.5478 29.0784 17.8587C29.7973 19.1168 30.199 20.5621 30.4297 22.0406C30.5344 22.7836 30.6109 23.5418 30.6445 24.301C30.6781 25.0602 30.6761 25.8275 30.6385 26.6029C30.6079 27.3709 30.5487 28.1396 30.4609 28.9091C30.4554 28.9738 30.4425 29.0315 30.437 29.0961C30.6369 29.0767 30.8298 29.0646 31.0224 29.0382C31.165 29.0202 31.3077 29.0023 31.4361 28.9847L31.5714 28.9597L31.8135 28.9105C32.1197 28.8525 32.419 28.8019 32.7256 28.7582C32.8013 28.0751 32.8627 27.3923 32.8882 26.7033C32.917 25.8636 32.9102 25.032 32.8601 24.1872C32.8031 23.3497 32.7101 22.5059 32.5387 21.6713C32.3672 20.8368 32.1385 20.0036 31.8174 19.1944C31.6569 18.7898 31.475 18.3928 31.2719 18.0036C31.0619 17.6218 30.8305 17.2476 30.5779 16.8812C30.3183 16.5221 30.0378 16.1851 29.7291 15.8631C29.5608 15.7168 29.3994 15.5632 29.2384 15.4239Z" fill="white"/>
<path d="M31.7725 31.5288C31.6013 31.5475 31.4373 31.5732 31.273 31.5845C30.9517 31.6142 30.6304 31.6439 30.2945 31.6597C30.223 31.6615 30.1514 31.6633 30.0872 31.6721C30.0335 32.3762 29.9942 33.0799 30.005 33.7895C30.0013 34.2055 30.0118 34.6211 30.0366 35.0364C30.0615 35.4516 30.1007 35.8665 30.1398 36.2814C30.332 37.9329 30.7032 39.587 31.3718 41.1188C31.7061 41.8847 32.1255 42.6197 32.629 43.2809C33.1254 43.9495 33.7198 44.5295 34.3901 45C33.4056 43.7129 32.7961 42.2513 32.4362 40.7618C32.076 39.258 31.9366 37.7127 31.9263 36.1785C31.923 34.6369 32.0267 33.0855 32.253 31.5667L32.2714 31.4444L31.7725 31.5288Z" fill="white"/>
<path d="M35.069 30.7446C36.4405 30.6382 37.5771 30.6157 38.6515 30.6738C39.949 30.7346 41.1133 30.9063 42.2018 31.1876C43.145 31.4285 44.0412 31.7785 44.8687 32.2309C44.2429 31.551 43.425 30.9399 42.4815 30.4611C41.4207 29.9124 40.1844 29.5043 38.8012 29.236C38.0917 29.1058 37.4629 29.0245 36.8787 28.9856C36.5251 28.9565 36.215 28.941 35.9125 28.9326C35.5955 28.9244 35.2715 28.9236 34.9476 28.9228C33.6453 28.9413 32.3893 29.0599 31.1225 29.2941L30.9006 29.3345L30.8936 29.3419L30.643 29.3829L30.6355 29.3758C30.5209 29.3925 30.3988 29.4021 30.2842 29.4188C29.9973 29.4533 29.6956 29.4737 29.4013 29.5011C28.6903 29.5513 28.1296 29.5768 27.6186 29.5796C26.4462 29.61 25.2424 29.5545 24.0508 29.4267C21.5946 29.1436 19.6042 28.5628 17.8464 27.5881C18.4656 28.2897 19.2557 28.9302 20.1944 29.4885C21.2356 30.1024 22.4524 30.5759 23.7947 30.917C24.9556 31.2113 26.2066 31.3957 27.6267 31.4614C28.3688 31.4827 28.9804 31.4779 29.5555 31.4521C29.879 31.4385 30.2021 31.4104 30.5251 31.3824C30.6829 31.3649 30.8482 31.3544 31.0129 31.3295L31.1708 31.312L31.5212 31.2402C32.6154 31.0094 33.8125 30.8488 35.069 30.7446Z" fill="white"/>
<path d="M52.701 13.7373V23.7666C52.701 26.8299 54.2893 29.0536 58.351 29.0536H64.4548V26.376H58.5098C56.1046 26.376 55.3785 25.2188 55.3785 23.7439V13.7373H52.701Z" fill="white"/>
<path d="M72.6478 13.7373V29.0536H75.3253V13.7373H72.6478Z" fill="white"/>
<path d="M87.3571 16.9367C87.3571 16.3921 87.6748 16.0517 88.2874 16.0517C88.764 16.0517 89.0362 16.2559 89.2405 16.7098L93.7106 26.4895C94.3459 28.2367 95.3216 29.3258 97.4545 29.3258C99.8144 29.3258 100.972 27.9871 100.972 25.9676V13.7373H98.2714V25.8541C98.2714 26.376 97.931 26.7164 97.3638 26.7164C96.8646 26.7164 96.5696 26.4441 96.3881 26.0811L91.918 16.3013C91.2826 14.5541 90.3296 13.465 88.1967 13.465C85.8141 13.465 84.6796 14.8037 84.6796 16.8005V29.0536H87.3571V16.9367Z" fill="white"/>
<path d="M114.879 13.7373C111.271 13.7373 109.751 15.4618 109.751 17.9124C109.751 19.5915 110.477 20.7714 111.906 21.3614C110.5 21.9513 109.705 23.1313 109.705 24.8784C109.705 27.261 111.18 29.0536 114.811 29.0536H122.571V26.376H114.811C113.245 26.376 112.496 25.6499 112.496 24.4473C112.496 23.1993 113.291 22.5867 114.834 22.5867H122.435V20.1588H114.902C113.359 20.1588 112.564 19.5915 112.564 18.3435C112.564 17.1636 113.268 16.4148 114.879 16.4148H122.548V13.7373H114.879Z" fill="white"/>
<path d="M138.1 16.7324C138.259 16.3694 138.508 16.2106 138.871 16.2106C139.234 16.2106 139.484 16.3694 139.62 16.7324L144.272 29.0536H147.244L142.071 15.4391C141.526 14.0095 140.482 13.465 138.894 13.465C137.283 13.465 136.239 14.0095 135.672 15.4391L130.294 29.0536H133.244L138.1 16.7324Z" fill="white"/>
<path d="M160.657 13.7373C156.21 13.7373 153.736 16.2559 153.736 21.4067C153.736 26.5349 156.187 29.0536 160.657 29.0536H163.017C166.443 29.0536 167.782 26.9433 167.782 24.2658C167.782 21.611 166.443 19.9318 163.72 19.9318H160.044V22.269H163.448C164.696 22.269 165.331 22.9951 165.331 24.2204C165.331 25.4684 164.696 26.376 163.198 26.376H160.657C157.685 26.376 156.414 24.9011 156.414 21.4067C156.414 17.8897 157.707 16.4148 160.657 16.4148H166.965V13.7373H160.657Z" fill="white"/>
<path d="M181.068 13.7373C177.46 13.7373 175.94 15.4618 175.94 17.9124C175.94 19.5915 176.666 20.7714 178.095 21.3614C176.689 21.9513 175.894 23.1313 175.894 24.8784C175.894 27.261 177.369 29.0536 181 29.0536H188.76V26.376H181C179.434 26.376 178.685 25.6499 178.685 24.4473C178.685 23.1993 179.48 22.5867 181.022 22.5867H188.624V20.1588H181.091C179.548 20.1588 178.753 19.5915 178.753 18.3435C178.753 17.1636 179.457 16.4148 181.068 16.4148H188.737V13.7373H181.068Z" fill="white"/>
<path d="M140.724 25.2557C140.724 26.3044 139.873 27.1546 138.825 27.1546C137.776 27.1546 136.926 26.3044 136.926 25.2557C136.926 24.2069 137.776 23.3568 138.825 23.3568C139.873 23.3568 140.724 24.2069 140.724 25.2557Z" fill="white"/>
<path d="M20.9209 13.3771C19.7686 13.091 18.526 12.9147 17.1148 12.8574C16.5133 12.8441 15.998 12.8429 15.519 12.8622C15.5128 12.8983 15.5135 12.9269 15.5072 12.9629C15.4907 13.157 15.4672 13.3583 15.4304 13.6031L15.3243 14.2153C15.2935 14.4096 15.27 14.611 15.2395 14.8197C15.2681 14.819 15.2893 14.8113 15.318 14.8106C16.032 14.7494 16.5826 14.7282 17.0905 14.7224C18.2561 14.6855 19.4524 14.7339 20.6363 14.8543C23.0763 15.122 25.0515 15.6884 26.7934 16.6479C26.1818 15.9536 25.4 15.321 24.4701 14.771C23.4601 14.1729 22.2602 13.7016 20.9209 13.3771Z" fill="white"/>
<path d="M5.99378 15.1198C6.6983 15.2452 7.32287 15.3225 7.90344 15.3579C8.25479 15.3848 8.56287 15.3985 8.86361 15.4052C9.17865 15.4115 9.50067 15.4105 9.82268 15.4094C10.7884 15.392 11.724 15.318 12.6651 15.1793C12.671 15.1289 12.6838 15.0712 12.6824 15.0139C12.7434 14.5965 12.8043 14.179 12.8869 13.7682L13.0011 13.1916L13.014 13.134C11.9954 13.3248 10.9043 13.4745 9.73322 13.5761C8.36922 13.6897 7.23923 13.7185 6.17161 13.6668C4.8821 13.6136 3.72574 13.4494 2.64533 13.1758C1.70905 12.9415 0.820098 12.5985 0.00012207 12.1533C0.618332 12.8259 1.42067 13.4221 2.35617 13.9074C3.40094 14.4688 4.62766 14.8677 5.99378 15.1198Z" fill="white"/>
<path d="M15.3288 10.4434C15.3253 10.0204 15.3147 9.60481 15.2902 9.20388C15.2654 8.78863 15.2262 8.37374 15.1874 7.97318C14.9766 6.15007 14.579 4.58269 13.9635 3.17144C13.6068 2.37026 13.1878 1.64954 12.7214 1.03759C12.4398 0.657554 12.1233 0.314265 11.7933 0C12.4129 1.0096 12.8715 2.15953 13.183 3.43512C13.5186 4.81764 13.6859 6.33353 13.7009 8.05406C13.7054 9.63863 13.5946 11.1975 13.3677 12.6875L13.263 13.357L13.1675 13.8256C13.0919 14.229 13.0236 14.6395 12.9626 15.0569C12.8487 15.9275 12.7833 16.7322 12.7464 17.5363C12.7194 18.4476 12.7259 19.2649 12.7738 20.0237C12.841 20.9829 12.9472 21.7833 13.1018 22.5179C13.2971 23.4451 13.5251 24.2495 13.815 24.9592C13.9906 25.3921 14.1578 25.7751 14.3528 26.1286C14.5559 26.5178 14.7942 26.8846 15.0391 27.2297C15.2841 27.5749 15.5645 27.9119 15.8733 28.2339C16.035 28.4018 16.189 28.5485 16.3426 28.6808C16.467 28.7852 16.5766 28.8756 16.7009 28.98L16.8252 29.0844C17.4823 29.5983 18.1952 30.0534 18.9202 30.4221C19.6815 30.8114 20.4546 31.1001 21.2251 31.2884C21.6788 31.3987 22.1387 31.4731 22.5905 31.5118C22.1644 31.3577 21.7448 31.182 21.3389 30.9772C20.6355 30.6151 19.9593 30.1949 19.3535 29.7299C18.7624 29.2789 18.1768 28.7632 17.6183 28.1894C17.5666 28.1262 17.508 28.0703 17.4566 28.0214C17.3829 27.9373 17.2949 27.8535 17.2286 27.7763C17.1109 27.6502 16.9928 27.5098 16.8744 27.3551C16.6672 27.0879 16.4663 26.7847 16.2643 26.4385C15.5978 25.2723 15.1546 23.8853 14.8972 22.1997C14.784 21.4066 14.7075 20.6485 14.689 19.9176C14.6547 19.1297 14.6567 18.3624 14.6877 17.6087C14.7175 16.812 14.7837 16.0359 14.8723 15.2951C14.9189 14.878 14.9667 14.5039 15.0222 14.1512L15.1213 13.5463C15.1511 13.3089 15.1746 13.1076 15.1985 12.9205C15.3036 11.9857 15.3408 11.196 15.3288 10.4434Z" fill="white"/>
<path d="M29.2386 15.4239C29.0703 15.2776 28.9096 15.1526 28.7417 15.0206C28.0772 14.4998 27.3644 14.0447 26.6247 13.662C25.8781 13.2866 25.0903 12.984 24.2839 12.7894C23.4774 12.5949 22.6522 12.5083 21.8446 12.5504C22.6298 12.7527 23.3742 13.0421 24.0699 13.3829C24.7659 13.738 25.4205 14.1516 26.0333 14.6092C26.6391 15.0742 27.2173 15.5829 27.7464 16.1287C27.8788 16.2688 28.0112 16.4088 28.1362 16.5419C28.2613 16.6749 28.365 16.8157 28.4831 16.9561C28.7049 17.2373 28.8989 17.5478 29.0785 17.8587C29.7974 19.1168 30.1991 20.5621 30.4298 22.0406C30.5346 22.7836 30.6111 23.5418 30.6446 24.301C30.6782 25.0602 30.6762 25.8275 30.6386 26.6029C30.608 27.3709 30.5488 28.1396 30.461 28.9091C30.4555 28.9738 30.4426 29.0315 30.4371 29.0961C30.637 29.0767 30.8299 29.0646 31.0225 29.0382C31.1652 29.0202 31.3078 29.0023 31.4362 28.9847L31.5715 28.9597L31.8136 28.9105C32.1199 28.8525 32.4192 28.8019 32.7258 28.7582C32.8015 28.0751 32.8629 27.3923 32.8883 26.7033C32.9171 25.8636 32.9103 25.032 32.8602 24.1872C32.8032 23.3497 32.7103 22.5059 32.5388 21.6713C32.3673 20.8368 32.1386 20.0036 31.8175 19.1944C31.657 18.7898 31.4752 18.3928 31.2721 18.0036C31.062 17.6218 30.8306 17.2476 30.578 16.8812C30.3184 16.5221 30.0379 16.1851 29.7292 15.8631C29.5609 15.7168 29.3995 15.5632 29.2386 15.4239Z" fill="white"/>
<path d="M31.7727 31.5288C31.6014 31.5475 31.4374 31.5732 31.2731 31.5845C30.9518 31.6142 30.6306 31.6439 30.2946 31.6597C30.2231 31.6615 30.1516 31.6633 30.0874 31.6721C30.0337 32.3762 29.9943 33.0799 30.0051 33.7895C30.0014 34.2055 30.0119 34.6211 30.0368 35.0364C30.0616 35.4516 30.1008 35.8665 30.1399 36.2814C30.3321 37.9329 30.7033 39.587 31.3719 41.1188C31.7062 41.8847 32.1257 42.6197 32.6291 43.2809C33.1255 43.9495 33.7199 44.5295 34.3902 45C33.4058 43.7129 32.7962 42.2513 32.4363 40.7618C32.0761 39.258 31.9367 37.7127 31.9264 36.1785C31.9231 34.6369 32.0269 33.0855 32.2531 31.5667L32.2715 31.4444L31.7727 31.5288Z" fill="white"/>
<path d="M35.0691 30.7446C36.4406 30.6382 37.5773 30.6157 38.6516 30.6738C39.9492 30.7346 41.1134 30.9063 42.2019 31.1876C43.1451 31.4285 44.0414 31.7785 44.8688 32.2309C44.2431 31.551 43.4251 30.9399 42.4816 30.4611C41.4209 29.9124 40.1845 29.5043 38.8013 29.236C38.0918 29.1058 37.4631 29.0245 36.8788 28.9856C36.5252 28.9565 36.2152 28.941 35.9126 28.9326C35.5956 28.9244 35.2717 28.9236 34.9477 28.9228C33.6454 28.9413 32.3894 29.0599 31.1226 29.2941L30.9007 29.3345L30.8937 29.3419L30.6431 29.3829L30.6357 29.3758C30.521 29.3925 30.3989 29.4021 30.2843 29.4188C29.9974 29.4533 29.6957 29.4737 29.4015 29.5011C28.6904 29.5513 28.1297 29.5768 27.6187 29.5796C26.4464 29.61 25.2426 29.5545 24.0509 29.4267C21.5947 29.1436 19.6043 28.5628 17.8465 27.5881C18.4657 28.2897 19.2558 28.9302 20.1946 29.4885C21.2358 30.1024 22.4526 30.5759 23.7948 30.917C24.9557 31.2113 26.2067 31.3957 27.6268 31.4614C28.3689 31.4827 28.9806 31.4779 29.5556 31.4521C29.8791 31.4385 30.2022 31.4104 30.5252 31.3824C30.683 31.3649 30.8483 31.3544 31.0131 31.3295L31.1709 31.312L31.5214 31.2402C32.6155 31.0094 33.8126 30.8488 35.0691 30.7446Z" fill="white"/>
</svg>
