<svg fill="none" height="32" viewBox="0 0 24 24" width="32" xmlns="http://www.w3.org/2000/svg"><g fill="#3880ff"><path d="m21.4117 10.9652v.3713c-.0608 1.9165-.5469 3.7956-1.4231 5.5012-1.0366 1.613-2.4227 2.9721-4.0556 3.9769l-.315.1856-.5625-.3206-3.1838-1.8394c-.1948-.1101-.3827-.2322-.5625-.3656-.1585-.1069-.3089-.2253-.45-.3544-.3286-.2787-.6266-.5917-.88872-.9337-.36671-.477-.66404-1.0034-.88313-1.5638-.39422-.9933-.56884-2.0603-.51188-3.1275.3124-.17.66246-.259 1.01813-.2587h.25875c-.08861.9295.03051 1.8671.34875 2.745.4184 1.1687 1.2375 2.1512 2.3119 2.7731l3.0937 1.7831.2363-.1631c1.2265-.838 2.2712-1.9152 3.0712-3.1669.7192-1.398 1.1388-2.9306 1.2319-4.5l-1.3106-.7593c.1067-.4359.1763-.88.2081-1.32755z"/><path d="m17.7887 4.6875v4.33126c.0001.22355-.0112.44697-.0338.66937 0 .19125-.045.38247-.0787.56247-.0835.4217-.2078.8343-.3713 1.2319-.2264.5597-.5314 1.0843-.9056 1.5581-.6609.8384-1.4957 1.5235-2.4469 2.0082-.3781-.2309-.6734-.5754-.8437-.9844.8444-.3924 1.5902-.969 2.1825-1.6875.799-.9435 1.2392-2.1387 1.2431-3.37502v-3.54938l-.2587-.12375c-1.3398-.64327-2.7959-1.00873-4.2807-1.07437-1.5827.07321-3.13183.48159-4.54497 1.19812v1.51313c-.43064.12437-.85021.28429-1.25437.47813v-2.75626l.315-.18c1.69268-.90558 3.56664-1.42068 5.48434-1.5075 1.9152.08987 3.7856.6089 5.4732 1.51875z"/><path d="m6.96072 9.88513-3.09376 1.78317v.2756c.10765 1.4854.51928 2.9328 1.20938 4.2525.85228 1.3326 1.97535 2.471 3.29626 3.3412l1.3275-.7593c.3247.3098.6746.592 1.0462.8437l-2.3737 1.3781-.32063-.1856c-1.6283-1.0092-3.01017-2.3699-4.04438-3.9825-.8779-1.7067-1.36226-3.5884-1.4175-5.5069v-.3656l.5625-.3262 3.1725-1.83379c.1935-.11125.3925-.21263.59625-.30375.17438-.07875.35438-.15188.53438-.21375.40637-.14359.82686-.24353 1.25438-.29813.59741-.07877 1.20258-.07877 1.8 0 1.055.16035 2.0637.54388 2.9588 1.125-.0101.43124-.1471.84994-.3938 1.20372-.7555-.53579-1.6197-.89875-2.5313-1.06309-1.23191-.22075-2.50222.0046-3.58308.63562z"/></g></svg>