<svg fill="none" height="32" viewBox="0 0 24 24" width="32" xmlns="http://www.w3.org/2000/svg" xmlns:xlink="http://www.w3.org/1999/xlink"><linearGradient id="a" gradientUnits="userSpaceOnUse" x1="6.70459" x2="13.6474" y1="4.04102" y2="14.453"><stop offset="0" stop-color="#fec73d"/><stop offset="1" stop-color="#ffec4e"/></linearGradient><linearGradient id="b" gradientUnits="userSpaceOnUse" x1="11.9414" x2="11.9414" y1="16.3594" y2="20.0046"><stop offset="0" stop-color="#fd9726"/><stop offset="1" stop-color="#fb7116"/></linearGradient><linearGradient id="c" gradientUnits="userSpaceOnUse" x1="15.3145" x2="14.0898" y1="8.96875" y2="10.1875"><stop offset="0" stop-color="#fd9425"/><stop offset="1" stop-color="#fc811c"/></linearGradient><linearGradient id="d" gradientUnits="userSpaceOnUse" x1="12.1265" x2="16.5508" y1="19.3984" y2="19.3984"><stop offset="0" stop-color="#fa4702"/><stop offset="1" stop-color="#fb6d13"/></linearGradient><linearGradient id="e"><stop offset="0" stop-color="#fa4400"/><stop offset="1" stop-color="#fb6a12"/></linearGradient><linearGradient id="f" gradientUnits="userSpaceOnUse" x1="13.6785" x2="13.6785" xlink:href="#e" y1="7.70239" y2="19.282"/><linearGradient id="g" gradientUnits="userSpaceOnUse" x1="14.5437" x2="8.3811" xlink:href="#e" y1="6.18598" y2="6.18598"/><linearGradient id="h" gradientUnits="userSpaceOnUse" x1="14.543" x2="14.543" y1="5.87109" y2="7.72266"><stop offset="0" stop-color="#fb6a12"/><stop offset="1" stop-color="#fa4d04"/></linearGradient><linearGradient id="i" gradientUnits="userSpaceOnUse" x1="6.70438" x2="6.70438" y1="4.04297" y2="10.1825"><stop offset="0" stop-color="#fb6d13"/><stop offset="1" stop-color="#fd9726"/></linearGradient><linearGradient id="j" gradientUnits="userSpaceOnUse" x1="8.54297" x2="8.54297" y1="8.94922" y2="10.1875"><stop offset="0" stop-color="#fb5a0a"/><stop offset="1" stop-color="#fb5709"/></linearGradient><linearGradient id="k" gradientUnits="userSpaceOnUse" x1="10.3974" x2="10.3974" y1="8.95044" y2="13.8879"><stop offset="0" stop-color="#fd9927"/><stop offset="1" stop-color="#fb7014"/></linearGradient><linearGradient id="l" gradientUnits="userSpaceOnUse" x1="9.78311" x2="9.78311" y1="13.8813" y2="17.5697"><stop offset="0" stop-color="#fb7014"/><stop offset="1" stop-color="#fd9525"/></linearGradient><linearGradient id="m" gradientUnits="userSpaceOnUse" x1="10.8496" x2="10.8496" y1="16.3633" y2="17.5625"><stop offset="0" stop-color="#fb6510"/><stop offset="1" stop-color="#fa5408"/></linearGradient><path d="m7.94507 8.96544-1.24048-4.92442h8.65211l1.1815 4.92442h-2.4506l2.4566 9.83006h-1.2223l-2.776-11.08722-.4999.50759 2.6655 10.57963h-1.842l-.6391-2.4246h-1.5077l-.6349-2.481h1.5412l-1.2405-4.92446z" fill="url(#a)"/><path d="m12.2305 16.3594-1.2188 1.207.6289 2.4297 1.2383-1.1992z" fill="url(#b)"/><path d="m14.3945 10.1875-.3047-1.21875h2.4493l-1.2227 1.21875z" fill="url(#c)"/><path d="m12.8789 18.7969-1.2422 1.2031h3.7149l1.1992-1.2031z" fill="url(#d)"/><path d="m12.5529 7.70239-.5138.51958 2.6808 10.57793-.4876.4821h.604l.4817-.4821z" fill="url(#f)"/><path d="m14.5437 5.87061h-6.1626l.17047.63074h5.52333z" fill="url(#g)"/><path d="m14.543 5.87109-.4649.625.3164 1.22657h.6133z" fill="url(#h)"/><path d="m7.94465 8.95788-1.23755-4.91491-1.24299 1.20193 1.23246 4.9376z" fill="url(#i)"/><path d="m10.3945 8.94922h-2.44919l-1.2539 1.23828h2.46484z" fill="url(#j)"/><path d="m10.0875 13.8879h1.5432l-1.2323-4.94259-1.24215 1.24219z" fill="url(#k)"/><path d="m10.0894 13.8813-1.23918 1.2247.62195 2.4637 1.25053-1.2064z" fill="url(#l)"/><path d="m11.0156 17.5625h-1.53904l1.23434-1.1992h1.5157z" fill="url(#m)"/></svg>